<svg version="1.1"
      xmlns="http://www.w3.org/2000/svg"
      xmlns:xlink="http://www.w3.org/1999/xlink"  id="snapshot-94391" width="250" height="250" viewBox="0 0 250 250"><desc>This image was made on Patterninja.com</desc><defs>
<!-- image 22929 -->
<g id="transformed-22929" data-image="22929" transform="translate(-54.76109943476867, -54.76109943476871) rotate(13, 64.76109943476867, 64.76109943476871)"><g><svg version="1.1" width="129.52219886953733px" height="129.52219886953742px" viewBox="0 0 129.52219886953733 129.52219886953742"><g id="original-22929"><svg xmlns="http://www.w3.org/2000/svg" viewBox="0 0 487.803 487.803" xmlns:xlink="http://www.w3.org/1999/xlink" version="1.1" preserveAspectRatio="xMidYMid meet">
  <path d="M480.6 296.133L416 91.033c-9.1-29.9-40.9-46.8-70.8-37.7-7.1 2.2-11.2 9.7-9 16.8s9.7 11.2 16.8 9c15.7-4.8 32.3 4.1 37.1 19.8v.1l46.2 146.9c-14.7-8.3-31.6-13-49.6-13-51.8 0-94.6 39.2-100.4 89.4h-85c-6.6-49.4-49-87.6-100.2-87.6-18.1 0-35.1 4.8-49.8 13.1l46.8-148.8v-.1c4.8-15.7 21.4-24.6 37.1-19.8 7.1 2.2 14.7-1.9 16.8-9 2.2-7.1-1.9-14.7-9-16.8-29.9-9.1-61.6 7.8-70.8 37.7l-64.4 205.3c-.2.6-.3 1.1-.4 1.7-4.7 11.7-7.4 24.5-7.4 37.8 0 55.7 45.4 101.1 101.1 101.1 51.2 0 93.6-38.2 100.2-87.6h85.5c7.4 48.5 49.4 85.8 99.9 85.8 55.7 0 101.1-45.4 101.1-101.1.1-13.4-2.5-26.2-7.2-37.9zm-379.4 113.8c-40.9 0-74.1-33.2-74.1-74.1s33.2-74.1 74.1-74.1 74.1 33.2 74.1 74.1-33.3 74.1-74.1 74.1zm285.6-1.8c-40.9 0-74.1-33.2-74.1-74.1s33.3-74.1 74.1-74.1 74.1 33.2 74.1 74.1-33.2 74.1-74.1 74.1z" fill="rgba(0, 0, 0, 1)" stroke="none"/>
</svg>
</g></svg></g></g>
<!-- /image 22929 -->

<!-- image 06677 -->
<g id="transformed-06677" data-image="06677" transform="translate(92.52273249258812, 75.52273249258808) rotate(345, 49.47726750741188, 49.47726750741192)"><g><svg version="1.1" width="98.95453501482376px" height="98.95453501482385px" viewBox="0 0 98.95453501482376 98.95453501482385"><g id="original-06677"><svg xmlns="http://www.w3.org/2000/svg" viewBox="0 0 487.803 487.803" xmlns:xlink="http://www.w3.org/1999/xlink" version="1.1" preserveAspectRatio="xMidYMid meet">
  <path d="M480.6 296.133L416 91.033c-9.1-29.9-40.9-46.8-70.8-37.7-7.1 2.2-11.2 9.7-9 16.8s9.7 11.2 16.8 9c15.7-4.8 32.3 4.1 37.1 19.8v.1l46.2 146.9c-14.7-8.3-31.6-13-49.6-13-51.8 0-94.6 39.2-100.4 89.4h-85c-6.6-49.4-49-87.6-100.2-87.6-18.1 0-35.1 4.8-49.8 13.1l46.8-148.8v-.1c4.8-15.7 21.4-24.6 37.1-19.8 7.1 2.2 14.7-1.9 16.8-9 2.2-7.1-1.9-14.7-9-16.8-29.9-9.1-61.6 7.8-70.8 37.7l-64.4 205.3c-.2.6-.3 1.1-.4 1.7-4.7 11.7-7.4 24.5-7.4 37.8 0 55.7 45.4 101.1 101.1 101.1 51.2 0 93.6-38.2 100.2-87.6h85.5c7.4 48.5 49.4 85.8 99.9 85.8 55.7 0 101.1-45.4 101.1-101.1.1-13.4-2.5-26.2-7.2-37.9zm-379.4 113.8c-40.9 0-74.1-33.2-74.1-74.1s33.2-74.1 74.1-74.1 74.1 33.2 74.1 74.1-33.3 74.1-74.1 74.1zm285.6-1.8c-40.9 0-74.1-33.2-74.1-74.1s33.3-74.1 74.1-74.1 74.1 33.2 74.1 74.1-33.2 74.1-74.1 74.1z" fill="rgba(0, 0, 0, 1)" stroke="none"/>
</svg>
</g></svg></g></g>
<!-- /image 06677 -->
</defs><rect x="0" y="0" width="250" height="250" fill="rgba(255, 255, 255, 0)"></rect><use xlink:href="#transformed-22929" transform="translate(-250, -250)"></use><use xlink:href="#transformed-22929" transform="translate(0, -250)"></use><use xlink:href="#transformed-22929" transform="translate(250, -250)"></use><use xlink:href="#transformed-22929" transform="translate(-250, 0)"></use><use xlink:href="#transformed-22929" transform="translate(0, 0)"></use><use xlink:href="#transformed-22929" transform="translate(250, 0)"></use><use xlink:href="#transformed-22929" transform="translate(-250, 250)"></use><use xlink:href="#transformed-22929" transform="translate(0, 250)"></use><use xlink:href="#transformed-22929" transform="translate(250, 250)"></use><use xlink:href="#transformed-06677" transform="translate(-250, -250)"></use><use xlink:href="#transformed-06677" transform="translate(0, -250)"></use><use xlink:href="#transformed-06677" transform="translate(250, -250)"></use><use xlink:href="#transformed-06677" transform="translate(-250, 0)"></use><use xlink:href="#transformed-06677" transform="translate(0, 0)"></use><use xlink:href="#transformed-06677" transform="translate(250, 0)"></use><use xlink:href="#transformed-06677" transform="translate(-250, 250)"></use><use xlink:href="#transformed-06677" transform="translate(0, 250)"></use><use xlink:href="#transformed-06677" transform="translate(250, 250)"></use></svg>